<svg xmlns="http://www.w3.org/2000/svg" width="640" height="40" viewBox="0 0 640 40" fill="#8b8f98" role="img"><g transform="translate(8.00 8.00) scale(1.0000)"><title>Anthropic</title><path d="M17.3041 3.541h-3.6718l6.696 16.918H24Zm-10.6082 0L0 20.459h3.7442l1.3693-3.5527h7.0052l1.3693 3.5528h3.7442L10.5363 3.5409Zm-.3712 10.2232 2.2914-5.9456 2.2914 5.9456Z"/></g><g transform="translate(62.00 8.00) scale(1.0000)"><title>OpenAI</title><path d="M22.2819 9.8211a5.9847 5.9847 0 0 0-.5157-4.9108 6.0462 6.0462 0 0 0-6.5098-2.9A6.0651 6.0651 0 0 0 4.9807 4.1818a5.9847 5.9847 0 0 0-3.9977 2.9 6.0462 6.0462 0 0 0 .7427 7.0966 5.98 5.98 0 0 0 .511 4.9107 6.051 6.051 0 0 0 6.5146 2.9001A5.9847 5.9847 0 0 0 13.2599 24a6.0557 6.0557 0 0 0 5.7718-4.2058 5.9894 5.9894 0 0 0 3.9977-2.9001 6.0557 6.0557 0 0 0-.7475-7.0729zm-9.022 12.6081a4.4755 4.4755 0 0 1-2.8764-1.0408l.1419-.0804 4.7783-2.7582a.7948.7948 0 0 0 .3927-.6813v-6.7369l2.02 1.1686a.071.071 0 0 1 .038.052v5.5826a4.504 4.504 0 0 1-4.4945 4.4944zm-9.6607-4.1254a4.4708 4.4708 0 0 1-.5346-3.0137l.142.0852 4.783 2.7582a.7712.7712 0 0 0 .7806 0l5.8428-3.3685v2.3324a.0804.0804 0 0 1-.0332.0615L9.74 19.9502a4.4992 4.4992 0 0 1-6.1408-1.6464zM2.3408 7.8956a4.485 4.485 0 0 1 2.3655-1.9728V11.6a.7664.7664 0 0 0 .3879.6765l5.8144 3.3543-2.0201 1.1685a.0757.0757 0 0 1-.071 0l-4.8303-2.7865A4.504 4.504 0 0 1 2.3408 7.872zm16.5963 3.8558L13.1038 8.364 15.1192 7.2a.0757.0757 0 0 1 .071 0l4.8303 2.7913a4.4944 4.4944 0 0 1-.6765 8.1042v-5.6772a.79.79 0 0 0-.407-.667zm2.0107-3.0231l-.142-.0852-4.7735-2.7818a.7759.7759 0 0 0-.7854 0L9.409 9.2297V6.8974a.0662.0662 0 0 1 .0284-.0615l4.8303-2.7866a4.4992 4.4992 0 0 1 6.6802 4.66zM8.3065 12.863l-2.02-1.1638a.0804.0804 0 0 1-.038-.0567V6.0742a4.4992 4.4992 0 0 1 7.3757-3.4537l-.142.0805L8.704 5.459a.7948.7948 0 0 0-.3927.6813zm1.0976-2.3654l2.602-1.4998 2.6069 1.4998v2.9994l-2.5974 1.4997-2.6067-1.4997Z"/></g><g transform="translate(116.00 8.00) scale(1.0000)"><title>Google</title><path d="M12.48 10.92v3.28h7.84c-.24 1.84-.853 3.187-1.787 4.133-1.147 1.147-2.933 2.4-6.053 2.4-4.827 0-8.6-3.893-8.6-8.72s3.773-8.72 8.6-8.72c2.6 0 4.507 1.027 5.907 2.347l2.307-2.307C18.747 1.44 16.133 0 12.48 0 5.867 0 .307 5.387.307 12s5.56 12 12.173 12c3.573 0 6.267-1.173 8.373-3.36 2.16-2.16 2.84-5.213 2.84-7.667 0-.76-.053-1.467-.173-2.053H12.48z"/></g><g transform="translate(170.00 8.00) scale(1.0000)"><title>xAI / Grok</title><path d="M14.234 10.162 22.977 0h-2.072l-7.591 8.824L7.251 0H.258l9.168 13.343L.258 24H2.33l8.016-9.318L16.749 24h6.993zm-2.837 3.299-.929-1.329L3.076 1.56h3.182l5.965 8.532.929 1.329 7.754 11.09h-3.182z"/></g><g transform="translate(224.00 8.00) scale(0.1875)"><title>AWS Bedrock</title><path d="M36.379 53.64c0 1.56.168 2.825.465 3.75.336.926.758 1.938 1.347 3.032.207.336.293.672.293.969 0 .418-.254.84-.8 1.261l-2.653 1.77c-.379.25-.758.379-1.093.379-.422 0-.844-.211-1.266-.59a13.28 13.28 0 0 1-1.516-1.98 34.153 34.153 0 0 1-1.304-2.485c-3.282 3.875-7.41 5.813-12.38 5.813-3.535 0-6.355-1.012-8.421-3.032-2.063-2.023-3.114-4.718-3.114-8.086 0-3.578 1.262-6.484 3.833-8.671 2.566-2.192 5.976-3.286 10.316-3.286 1.43 0 2.902.125 4.46.336 1.56.211 3.161.547 4.845.926v-3.074c0-3.2-.676-5.43-1.98-6.734C26.061 32.633 23.788 32 20.546 32c-1.473 0-2.988.168-4.547.547a33.416 33.416 0 0 0-4.547 1.433c-.676.293-1.18.461-1.473.547-.296.082-.507.125-.675.125-.59 0-.883-.422-.883-1.304v-2.063c0-.676.082-1.18.293-1.476.21-.293.59-.586 1.18-.883 1.472-.758 3.242-1.39 5.304-1.895 2.063-.547 4.254-.8 6.57-.8 5.008 0 8.672 1.136 11.032 3.41 2.316 2.273 3.492 5.726 3.492 10.359v13.64Zm-17.094 6.403c1.387 0 2.82-.254 4.336-.758 1.516-.508 2.863-1.433 4-2.695.672-.8 1.18-1.684 1.43-2.695.254-1.012.422-2.23.422-3.665v-1.765a34.401 34.401 0 0 0-3.871-.719 31.816 31.816 0 0 0-3.961-.25c-2.82 0-4.883.547-6.274 1.684-1.387 1.136-2.062 2.734-2.062 4.84 0 1.98.504 3.453 1.558 4.464 1.012 1.051 2.485 1.559 4.422 1.559Zm33.809 4.547c-.758 0-1.262-.125-1.598-.422-.34-.254-.633-.84-.887-1.64L40.715 29.98c-.25-.843-.38-1.39-.38-1.687 0-.672.337-1.05 1.013-1.05h4.125c.8 0 1.347.124 1.644.421.336.25.59.84.84 1.64l7.074 27.876 6.57-27.875c.208-.84.462-1.39.797-1.64.34-.255.93-.423 1.688-.423h3.367c.8 0 1.348.125 1.684.422.336.25.633.84.8 1.64l6.653 28.212 7.285-28.211c.25-.84.547-1.39.84-1.64.336-.255.887-.423 1.644-.423h3.914c.676 0 1.055.336 1.055 1.051 0 .21-.043.422-.086.676-.043.254-.125.59-.293 1.05L80.801 62.57c-.254.84-.547 1.387-.887 1.64-.336.255-.883.423-1.598.423h-3.62c-.801 0-1.348-.13-1.684-.422-.34-.297-.633-.844-.801-1.684l-6.527-27.16-6.485 27.117c-.21.844-.46 1.391-.8 1.684-.337.297-.926.422-1.684.422Zm54.105 1.137c-2.187 0-4.379-.254-6.484-.758-2.106-.504-3.746-1.055-4.84-1.684-.676-.379-1.137-.8-1.305-1.18a2.919 2.919 0 0 1-.254-1.18v-2.148c0-.882.336-1.304.97-1.304.25 0 .503.043.757.129.25.082.629.25 1.05.418a23.102 23.102 0 0 0 4.634 1.476c1.683.336 3.324.504 5.011.504 2.653 0 4.715-.465 6.145-1.39 1.433-.926 2.191-2.274 2.191-4 0-1.18-.379-2.145-1.136-2.946-.758-.8-2.192-1.516-4.254-2.191l-6.106-1.895c-3.074-.969-5.348-2.398-6.734-4.293-1.39-1.855-2.106-3.918-2.106-6.105 0-1.77.38-3.328 1.137-4.676a10.829 10.829 0 0 1 3.031-3.453c1.262-.965 2.696-1.684 4.38-2.188 1.683-.504 3.452-.715 5.304-.715.926 0 1.894.043 2.82.168.969.125 1.852.293 2.738.461.84.211 1.641.422 2.399.676.758.254 1.348.504 1.77.758.59.336 1.011.672 1.261 1.05.254.34.379.802.379 1.391v1.98c0 .884-.336 1.348-.969 1.348-.336 0-.883-.171-1.597-.507-2.403-1.094-5.098-1.641-8.086-1.641-2.399 0-4.293.379-5.598 1.18-1.309.797-1.98 2.02-1.98 3.746 0 1.18.421 2.191 1.261 2.988.844.8 2.403 1.602 4.633 2.316l5.98 1.895c3.032.969 5.22 2.316 6.524 4.043 1.305 1.727 1.938 3.707 1.938 5.895 0 1.812-.38 3.453-1.094 4.882-.758 1.434-1.77 2.696-3.074 3.707-1.305 1.051-2.864 1.809-4.672 2.36-1.895.586-3.875.883-6.024.883Zm0 0"/>
	<path d="M118 73.348c-4.432.063-9.664 1.052-13.621 3.832-1.223.883-1.012 2.062.336 1.894 4.508-.547 14.44-1.726 16.21.547 1.77 2.23-1.976 11.62-3.663 15.79-.504 1.26.59 1.769 1.726.8 7.41-6.231 9.348-19.242 7.832-21.137-.757-.925-4.388-1.79-8.82-1.726zM1.63 75.859c-.927.116-1.347 1.236-.368 2.121 16.508 14.902 38.359 23.872 62.613 23.872 17.305 0 37.43-5.43 51.281-15.66 2.273-1.688.297-4.254-2.02-3.204-15.534 6.57-32.421 9.77-47.788 9.77-22.778 0-44.8-6.273-62.653-16.633-.39-.231-.755-.304-1.064-.266z"/></g><g transform="translate(278.00 8.00) scale(0.1875)"><title>Azure</title><defs><linearGradient id="azure-original-a" x1="60.919" y1="9.602" x2="18.667" y2="134.423" gradientUnits="userSpaceOnUse"><stop stop-color="#114A8B"/><stop offset="1" stop-color="#0669BC"/></linearGradient><linearGradient id="azure-original-b" x1="74.117" y1="67.772" x2="64.344" y2="71.076" gradientUnits="userSpaceOnUse"><stop stop-opacity=".3"/><stop offset=".071" stop-opacity=".2"/><stop offset=".321" stop-opacity=".1"/><stop offset=".623" stop-opacity=".05"/><stop offset="1" stop-opacity="0"/></linearGradient><linearGradient id="azure-original-c" x1="68.742" y1="5.961" x2="115.122" y2="129.525" gradientUnits="userSpaceOnUse"><stop stop-color="#3CCBF4"/><stop offset="1" stop-color="#2892DF"/></linearGradient></defs><path d="M46.09.002h40.685L44.541 125.137a6.485 6.485 0 01-6.146 4.413H6.733a6.482 6.482 0 01-5.262-2.699 6.474 6.474 0 01-.876-5.848L39.944 4.414A6.488 6.488 0 0146.09 0z" transform="translate(.587 4.468) scale(.91904)"/><path d="M97.28 81.607H37.987a2.743 2.743 0 00-1.874 4.751l38.1 35.562a5.991 5.991 0 004.087 1.61h33.574z"/><path d="M46.09.002A6.434 6.434 0 0039.93 4.5L.644 120.897a6.469 6.469 0 006.106 8.653h32.48a6.942 6.942 0 005.328-4.531l7.834-23.089 27.985 26.101a6.618 6.618 0 004.165 1.519h36.396l-15.963-45.616-46.533.011L86.922.002z" transform="translate(.587 4.468) scale(.91904)"/><path d="M98.055 4.408A6.476 6.476 0 0091.917.002H46.575a6.478 6.478 0 016.137 4.406l39.35 116.594a6.476 6.476 0 01-6.137 8.55h45.344a6.48 6.48 0 006.136-8.55z" transform="translate(.587 4.468) scale(.91904)"/></g><g transform="translate(332.00 8.00) scale(1.0000)"><title>Mistral</title><path d="M17.143 3.429v3.428h-3.429v3.429h-3.428V6.857H6.857V3.43H3.43v13.714H0v3.428h10.286v-3.428H6.857v-3.429h3.429v3.429h3.429v-3.429h3.428v3.429h-3.428v3.428H24v-3.428h-3.43V3.429z"/></g><g transform="translate(386.00 8.00) scale(1.0000)"><title>DeepSeek</title><path d="M23.748 4.651c-.254-.124-.364.113-.512.233-.051.04-.094.09-.137.137-.372.397-.806.657-1.373.626-.829-.046-1.537.214-2.163.848-.133-.782-.575-1.248-1.247-1.548-.352-.155-.708-.311-.955-.65-.172-.24-.219-.509-.305-.774-.055-.16-.11-.323-.293-.35-.2-.031-.278.136-.356.276-.313.572-.434 1.202-.422 1.84.027 1.436.633 2.58 1.838 3.393.137.094.172.187.129.323-.082.28-.18.553-.266.833-.055.179-.137.218-.328.14a5.5 5.5 0 0 1-1.737-1.179c-.857-.828-1.631-1.743-2.597-2.46a12 12 0 0 0-.689-.47c-.985-.957.13-1.743.387-1.836.27-.098.094-.433-.778-.428-.872.003-1.67.295-2.687.685a3 3 0 0 1-.465.136 9.6 9.6 0 0 0-2.883-.101c-1.885.21-3.39 1.1-4.497 2.622C.082 8.776-.231 10.854.152 13.02c.403 2.284 1.568 4.175 3.36 5.653 1.857 1.533 3.997 2.284 6.438 2.14 1.482-.085 3.132-.284 4.994-1.86.47.234.962.328 1.78.398.629.058 1.235-.031 1.705-.129.735-.155.684-.836.418-.961-2.155-1.004-1.682-.595-2.112-.926 1.095-1.295 2.768-3.598 3.284-6.733.05-.346.115-.834.108-1.114-.004-.171.035-.238.23-.257a4.2 4.2 0 0 0 1.545-.475c1.397-.763 1.96-2.016 2.093-3.517.02-.23-.004-.467-.247-.588M11.58 18.168c-2.088-1.642-3.101-2.183-3.52-2.16-.39.024-.32.472-.234.763.09.288.207.487.371.74.114.167.192.416-.113.603-.673.416-1.842-.14-1.897-.168-1.361-.801-2.5-1.86-3.301-3.306-.775-1.393-1.225-2.888-1.299-4.482-.02-.385.094-.522.477-.592a4.7 4.7 0 0 1 1.53-.038c2.131.311 3.946 1.264 5.467 2.774.868.86 1.525 1.887 2.202 2.89.72 1.066 1.494 2.082 2.48 2.915.348.291.626.513.892.677-.802.09-2.14.109-3.055-.615zm1.001-6.44a.306.306 0 0 1 .415-.287.3.3 0 0 1 .113.074.3.3 0 0 1 .086.214c0 .17-.136.307-.308.307a.303.303 0 0 1-.306-.307m3.11 1.596c-.2.081-.4.151-.591.16a1.25 1.25 0 0 1-.798-.254c-.274-.23-.47-.358-.551-.758a1.7 1.7 0 0 1 .015-.588c.07-.327-.007-.537-.238-.727-.188-.156-.426-.199-.689-.199a.6.6 0 0 1-.254-.078.253.253 0 0 1-.114-.358 1 1 0 0 1 .192-.21c.356-.202.767-.136 1.146.016.352.144.618.408 1.001.782.392.451.462.576.685.915.176.264.336.536.446.848.066.194-.02.353-.25.45"/></g><g transform="translate(440.00 8.00) scale(1.0000)"><title>Perplexity</title><path d="M22.3977 7.0896h-2.3106V.0676l-7.5094 6.3542V.1577h-1.1554v6.1966L4.4904 0v7.0896H1.6023v10.3976h2.8882V24l6.932-6.3591v6.2005h1.1554v-6.0469l6.9318 6.1807v-6.4879h2.8882V7.0896zm-3.4657-4.531v4.531h-5.355l5.355-4.531zm-13.2862.0676 4.8691 4.4634H5.6458V2.6262zM2.7576 16.332V8.245h7.8476l-6.1149 6.1147v1.9723H2.7576zm2.8882 5.0404v-3.8852h.0001v-2.6488l5.7763-5.7764v7.0111l-5.7764 5.2993zm12.7086.0248-5.7766-5.1509V9.0618l5.7766 5.7766v6.5588zm2.8882-5.0652h-1.733v-1.9723L13.3948 8.245h7.8478v8.087z"/></g><g transform="translate(494.00 8.00) scale(1.0000)"><title>Hugging Face</title><path d="M12.025 1.13c-5.77 0-10.449 4.647-10.449 10.378 0 1.112.178 2.181.503 3.185.064-.222.203-.444.416-.577a.96.96 0 0 1 .524-.15c.293 0 .584.124.84.284.278.173.48.408.71.694.226.282.458.611.684.951v-.014c.017-.324.106-.622.264-.874s.403-.487.762-.543c.3-.047.596.06.787.203s.31.313.4.467c.15.257.212.468.233.542.01.026.653 1.552 1.657 2.54.616.605 1.01 1.223 1.082 1.912.055.537-.096 1.059-.38 1.572.637.121 1.294.187 1.967.187.657 0 1.298-.063 1.921-.178-.287-.517-.44-1.041-.384-1.581.07-.69.465-1.307 1.081-1.913 1.004-.987 1.647-2.513 1.657-2.539.021-.074.083-.285.233-.542.09-.154.208-.323.4-.467a1.08 1.08 0 0 1 .787-.203c.359.056.604.29.762.543s.247.55.265.874v.015c.225-.34.457-.67.683-.952.23-.286.432-.52.71-.694.257-.16.547-.284.84-.285a.97.97 0 0 1 .524.151c.228.143.373.388.43.625l.006.04a10.3 10.3 0 0 0 .534-3.273c0-5.731-4.678-10.378-10.449-10.378M8.327 6.583a1.5 1.5 0 0 1 .713.174 1.487 1.487 0 0 1 .617 2.013c-.183.343-.762-.214-1.102-.094-.38.134-.532.914-.917.71a1.487 1.487 0 0 1 .69-2.803m7.486 0a1.487 1.487 0 0 1 .689 2.803c-.385.204-.536-.576-.916-.71-.34-.12-.92.437-1.103.094a1.487 1.487 0 0 1 .617-2.013 1.5 1.5 0 0 1 .713-.174m-10.68 1.55a.96.96 0 1 1 0 1.921.96.96 0 0 1 0-1.92m13.838 0a.96.96 0 1 1 0 1.92.96.96 0 0 1 0-1.92M8.489 11.458c.588.01 1.965 1.157 3.572 1.164 1.607-.007 2.984-1.155 3.572-1.164.196-.003.305.12.305.454 0 .886-.424 2.328-1.563 3.202-.22-.756-1.396-1.366-1.63-1.32q-.011.001-.02.006l-.044.026-.01.008-.03.024q-.018.017-.035.036l-.032.04a1 1 0 0 0-.058.09l-.014.025q-.049.088-.11.19a1 1 0 0 1-.083.116 1.2 1.2 0 0 1-.173.18q-.035.029-.075.058a1.3 1.3 0 0 1-.251-.243 1 1 0 0 1-.076-.107c-.124-.193-.177-.363-.337-.444-.034-.016-.104-.008-.2.022q-.094.03-.216.087-.06.028-.125.063l-.13.074q-.067.04-.136.086a3 3 0 0 0-.135.096 3 3 0 0 0-.26.219 2 2 0 0 0-.12.121 2 2 0 0 0-.106.128l-.002.002a2 2 0 0 0-.09.132l-.001.001a1.2 1.2 0 0 0-.105.212q-.013.036-.024.073c-1.139-.875-1.563-2.317-1.563-3.203 0-.334.109-.457.305-.454m.836 10.354c.824-1.19.766-2.082-.365-3.194-1.13-1.112-1.789-2.738-1.789-2.738s-.246-.945-.806-.858-.97 1.499.202 2.362c1.173.864-.233 1.45-.685.64-.45-.812-1.683-2.896-2.322-3.295s-1.089-.175-.938.647 2.822 2.813 2.562 3.244-1.176-.506-1.176-.506-2.866-2.567-3.49-1.898.473 1.23 2.037 2.16c1.564.932 1.686 1.178 1.464 1.53s-3.675-2.511-4-1.297c-.323 1.214 3.524 1.567 3.287 2.405-.238.839-2.71-1.587-3.216-.642-.506.946 3.49 2.056 3.522 2.064 1.29.33 4.568 1.028 5.713-.624m5.349 0c-.824-1.19-.766-2.082.365-3.194 1.13-1.112 1.789-2.738 1.789-2.738s.246-.945.806-.858.97 1.499-.202 2.362c-1.173.864.233 1.45.685.64.451-.812 1.683-2.896 2.322-3.295s1.089-.175.938.647-2.822 2.813-2.562 3.244 1.176-.506 1.176-.506 2.866-2.567 3.49-1.898-.473 1.23-2.037 2.16c-1.564.932-1.686 1.178-1.464 1.53s3.675-2.511 4-1.297c.323 1.214-3.524 1.567-3.287 2.405.238.839 2.71-1.587 3.216-.642.506.946-3.49 2.056-3.522 2.064-1.29.33-4.568 1.028-5.713-.624"/></g><text x="548.00" y="25.28" fill="#8b8f98" font-family="-apple-system,Segoe UI,Roboto,sans-serif" font-size="14" font-weight="500">+26 more</text></svg>
